# xmcd CD database file
#
# Track frame offsets:
#	150
#	17212
#	31302
#	47295
#	62595
#	83332
#	100447
#
# Disc length: 1585 seconds
#
# Revision: 0
# Processed by: cddbd v1.5PL3 Copyright (c) Steve Scherf et al.
# Submitted via: CDex 1.51
#
DISCID=47062f07
DTITLE=布施明 - 本人歌唱
DYEAR=1900
DGENRE=Pop
TTITLE0=愛の園
TTITLE1=霧の摩周湖
TTITLE2=愛の終りに
TTITLE3=冬の停車場
TTITLE4=シクラメンのかほり
TTITLE5=恋
TTITLE6=マイ・ウェイ
EXTD=
EXTT0=
EXTT1=
EXTT2=
EXTT3=
EXTT4=
EXTT5=
EXTT6=
PLAYORDER=
